<svg xmlns="http://www.w3.org/2000/svg" width="1180" height="820" viewBox="0 0 1180 820">
<rect width="100%" height="100%" fill="#1c1c20"/>
<rect x="0.0" y="0.0" width="1180.0" height="820.0" fill="rgba(28,28,33,1.000)"/>
<rect x="0.0" y="0.0" width="1180.0" height="60.0" fill="rgba(28,28,33,1.000)"/>
<text x="87.0" y="37.2" font-family="Helvetica,Arial,sans-serif" font-size="20" fill="rgba(229,229,229,1.000)" text-anchor="middle">PlanB-FX</text>
<rect x="994.0" y="8.0" width="178.0" height="44.0" rx="2" fill="rgba(216,38,63,1.000)" stroke="rgba(216,38,63,1.000)" stroke-width="1.5"/>
<text x="1083.0" y="35.4" font-family="Helvetica,Arial,sans-serif" font-size="15" fill="rgba(234,234,239,1.000)" text-anchor="middle">BLACKOUT</text>
<rect x="808.0" y="8.0" width="178.0" height="44.0" rx="2" fill="rgba(242,204,51,1.000)" stroke="rgba(242,204,51,1.000)" stroke-width="1.5"/>
<text x="897.0" y="35.8" font-family="Helvetica,Arial,sans-serif" font-size="16" fill="rgba(234,234,239,1.000)" text-anchor="middle">TAP</text>
<rect x="178.0" y="14.0" width="622.0" height="32.0" rx="2" fill="rgba(237,89,40,1.000)" stroke="rgba(237,89,40,1.000)" stroke-width="1.5"/>
<text x="262.0" y="147.7" font-family="Helvetica,Arial,sans-serif" font-size="13" fill="rgba(237,89,40,1.000)" text-anchor="middle">RESOLUME</text>
<rect x="12.0" y="154.0" width="492.0" height="492.0" rx="2" fill="rgba(237,89,40,1.000)" stroke="rgba(237,89,40,1.000)" stroke-width="1.5"/>
<rect x="512.0" y="154.0" width="72.0" height="492.0" rx="2" fill="rgba(40,40,48,1.000)" stroke="rgba(40,40,48,1.000)" stroke-width="1.5"/>
<text x="23.0" y="681.7" font-family="Helvetica,Arial,sans-serif" font-size="13" fill="rgba(234,234,239,1.000)" text-anchor="middle">R</text>
<rect x="38.0" y="654.0" width="546.0" height="46.0" rx="2" fill="rgba(237,89,40,1.000)" stroke="rgba(237,89,40,1.000)" stroke-width="1.5"/>
<text x="23.0" y="731.7" font-family="Helvetica,Arial,sans-serif" font-size="13" fill="rgba(234,234,239,1.000)" text-anchor="middle">G</text>
<rect x="38.0" y="704.0" width="546.0" height="46.0" rx="2" fill="rgba(237,89,40,1.000)" stroke="rgba(237,89,40,1.000)" stroke-width="1.5"/>
<text x="23.0" y="781.7" font-family="Helvetica,Arial,sans-serif" font-size="13" fill="rgba(234,234,239,1.000)" text-anchor="middle">B</text>
<rect x="38.0" y="754.0" width="546.0" height="46.0" rx="2" fill="rgba(237,89,40,1.000)" stroke="rgba(237,89,40,1.000)" stroke-width="1.5"/>
<text x="846.0" y="147.7" font-family="Helvetica,Arial,sans-serif" font-size="13" fill="rgba(51,158,229,1.000)" text-anchor="middle">TOUCHDESIGNER</text>
<rect x="596.0" y="154.0" width="492.0" height="492.0" rx="2" fill="rgba(51,158,229,1.000)" stroke="rgba(51,158,229,1.000)" stroke-width="1.5"/>
<rect x="1096.0" y="154.0" width="72.0" height="492.0" rx="2" fill="rgba(40,40,48,1.000)" stroke="rgba(40,40,48,1.000)" stroke-width="1.5"/>
<text x="607.0" y="681.7" font-family="Helvetica,Arial,sans-serif" font-size="13" fill="rgba(234,234,239,1.000)" text-anchor="middle">R</text>
<rect x="622.0" y="654.0" width="546.0" height="46.0" rx="2" fill="rgba(51,158,229,1.000)" stroke="rgba(51,158,229,1.000)" stroke-width="1.5"/>
<text x="607.0" y="731.7" font-family="Helvetica,Arial,sans-serif" font-size="13" fill="rgba(234,234,239,1.000)" text-anchor="middle">G</text>
<rect x="622.0" y="704.0" width="546.0" height="46.0" rx="2" fill="rgba(51,158,229,1.000)" stroke="rgba(51,158,229,1.000)" stroke-width="1.5"/>
<text x="607.0" y="781.7" font-family="Helvetica,Arial,sans-serif" font-size="13" fill="rgba(234,234,239,1.000)" text-anchor="middle">B</text>
<rect x="622.0" y="754.0" width="546.0" height="46.0" rx="2" fill="rgba(51,158,229,1.000)" stroke="rgba(51,158,229,1.000)" stroke-width="1.5"/>
</svg>
