<svg xmlns="http://www.w3.org/2000/svg" width="1558" height="844" viewBox="0 0 1558 844">
<rect width="100%" height="100%" fill="#141416"/>
<g><rect x="0.0" y="0.0" width="1180.0" height="820.0" fill="rgba(28,28,33,1.000)" rx="3"/><rect x="0.0" y="0.0" width="393.3" height="60.0" fill="rgba(25,25,25,1.000)" stroke="#000" stroke-width="0.5"/><text x="196.7" y="35.4" font-family="Helvetica,Arial,sans-serif" font-size="15" fill="rgba(178,178,183,1.000)" text-anchor="middle">RESOLUME</text><rect x="393.3" y="0.0" width="393.3" height="60.0" fill="rgba(25,25,25,1.000)" stroke="#000" stroke-width="0.5"/><text x="590.0" y="35.4" font-family="Helvetica,Arial,sans-serif" font-size="15" fill="rgba(178,178,183,1.000)" text-anchor="middle">FX</text><rect x="786.7" y="0.0" width="393.3" height="60.0" fill="rgba(63,63,63,1.000)" stroke="#000" stroke-width="0.5"/><text x="983.3" y="35.4" font-family="Helvetica,Arial,sans-serif" font-size="15" fill="rgba(255,255,255,1.000)" text-anchor="middle">TOUCHDESIGNER</text><text x="295.0" y="77.0" font-family="Helvetica,Arial,sans-serif" font-size="14" fill="rgba(51,158,229,1.000)" text-anchor="middle">PARAM BANK</text><rect x="8.0" y="86.0" width="57.0" height="610.0" rx="3" fill="#0f0f12" stroke="rgba(255,255,255,0.10)" stroke-width="1"/><rect x="10.0" y="488.6" width="53.0" height="205.4" rx="2" fill="rgba(51,158,229,1.000)" opacity="0.9"/><line x1="10.0" y1="488.6" x2="63.0" y2="488.6" stroke="#fff" stroke-width="1.5" opacity="0.75"/><text x="36.5" y="711.3" font-family="Helvetica,Arial,sans-serif" font-size="12" fill="rgba(234,234,239,1.000)" text-anchor="middle">1</text><rect x="81.0" y="86.0" width="57.0" height="610.0" rx="3" fill="#0f0f12" stroke="rgba(255,255,255,0.10)" stroke-width="1"/><rect x="83.0" y="488.6" width="53.0" height="205.4" rx="2" fill="rgba(51,158,229,1.000)" opacity="0.9"/><line x1="83.0" y1="488.6" x2="136.0" y2="488.6" stroke="#fff" stroke-width="1.5" opacity="0.75"/><text x="109.5" y="711.3" font-family="Helvetica,Arial,sans-serif" font-size="12" fill="rgba(234,234,239,1.000)" text-anchor="middle">2</text><rect x="154.0" y="86.0" width="57.0" height="610.0" rx="3" fill="#0f0f12" stroke="rgba(255,255,255,0.10)" stroke-width="1"/><rect x="156.0" y="488.6" width="53.0" height="205.4" rx="2" fill="rgba(51,158,229,1.000)" opacity="0.9"/><line x1="156.0" y1="488.6" x2="209.0" y2="488.6" stroke="#fff" stroke-width="1.5" opacity="0.75"/><text x="182.5" y="711.3" font-family="Helvetica,Arial,sans-serif" font-size="12" fill="rgba(234,234,239,1.000)" text-anchor="middle">3</text><rect x="227.0" y="86.0" width="57.0" height="610.0" rx="3" fill="#0f0f12" stroke="rgba(255,255,255,0.10)" stroke-width="1"/><rect x="229.0" y="488.6" width="53.0" height="205.4" rx="2" fill="rgba(51,158,229,1.000)" opacity="0.9"/><line x1="229.0" y1="488.6" x2="282.0" y2="488.6" stroke="#fff" stroke-width="1.5" opacity="0.75"/><text x="255.5" y="711.3" font-family="Helvetica,Arial,sans-serif" font-size="12" fill="rgba(234,234,239,1.000)" text-anchor="middle">4</text><rect x="300.0" y="86.0" width="57.0" height="610.0" rx="3" fill="#0f0f12" stroke="rgba(255,255,255,0.10)" stroke-width="1"/><rect x="302.0" y="488.6" width="53.0" height="205.4" rx="2" fill="rgba(51,158,229,1.000)" opacity="0.9"/><line x1="302.0" y1="488.6" x2="355.0" y2="488.6" stroke="#fff" stroke-width="1.5" opacity="0.75"/><text x="328.5" y="711.3" font-family="Helvetica,Arial,sans-serif" font-size="12" fill="rgba(234,234,239,1.000)" text-anchor="middle">5</text><rect x="373.0" y="86.0" width="57.0" height="610.0" rx="3" fill="#0f0f12" stroke="rgba(255,255,255,0.10)" stroke-width="1"/><rect x="375.0" y="488.6" width="53.0" height="205.4" rx="2" fill="rgba(51,158,229,1.000)" opacity="0.9"/><line x1="375.0" y1="488.6" x2="428.0" y2="488.6" stroke="#fff" stroke-width="1.5" opacity="0.75"/><text x="401.5" y="711.3" font-family="Helvetica,Arial,sans-serif" font-size="12" fill="rgba(234,234,239,1.000)" text-anchor="middle">6</text><rect x="446.0" y="86.0" width="57.0" height="610.0" rx="3" fill="#0f0f12" stroke="rgba(255,255,255,0.10)" stroke-width="1"/><rect x="448.0" y="488.6" width="53.0" height="205.4" rx="2" fill="rgba(51,158,229,1.000)" opacity="0.9"/><line x1="448.0" y1="488.6" x2="501.0" y2="488.6" stroke="#fff" stroke-width="1.5" opacity="0.75"/><text x="474.5" y="711.3" font-family="Helvetica,Arial,sans-serif" font-size="12" fill="rgba(234,234,239,1.000)" text-anchor="middle">7</text><rect x="519.0" y="86.0" width="57.0" height="610.0" rx="3" fill="#0f0f12" stroke="rgba(255,255,255,0.10)" stroke-width="1"/><rect x="521.0" y="488.6" width="53.0" height="205.4" rx="2" fill="rgba(51,158,229,1.000)" opacity="0.9"/><line x1="521.0" y1="488.6" x2="574.0" y2="488.6" stroke="#fff" stroke-width="1.5" opacity="0.75"/><text x="547.5" y="711.3" font-family="Helvetica,Arial,sans-serif" font-size="12" fill="rgba(234,234,239,1.000)" text-anchor="middle">8</text><rect x="8.0" y="720.0" width="57.0" height="48.0" rx="3" fill="#0f0f12"/><rect x="8.0" y="720.0" width="57.0" height="48.0" rx="3" fill="rgba(51,158,229,1.000)" opacity="0.22"/><path d="M 17.0 720.0 L 8.0 720.0 L 8.0 729.0 M 56.0 720.0 L 65.0 720.0 L 65.0 729.0 M 17.0 768.0 L 8.0 768.0 L 8.0 759.0 M 56.0 768.0 L 65.0 768.0 L 65.0 759.0" fill="none" stroke="rgba(51,158,229,1.000)" stroke-width="1.6" opacity="0.85"/><text x="36.5" y="749.0" font-family="Helvetica,Arial,sans-serif" font-size="14" fill="rgba(234,234,239,1.000)" text-anchor="middle">1</text><rect x="8.0" y="772.0" width="57.0" height="48.0" rx="3" fill="#0f0f12"/><rect x="8.0" y="772.0" width="57.0" height="48.0" rx="3" fill="rgba(40,40,48,1.000)" opacity="0.22"/><path d="M 17.0 772.0 L 8.0 772.0 L 8.0 781.0 M 56.0 772.0 L 65.0 772.0 L 65.0 781.0 M 17.0 820.0 L 8.0 820.0 L 8.0 811.0 M 56.0 820.0 L 65.0 820.0 L 65.0 811.0" fill="none" stroke="rgba(40,40,48,1.000)" stroke-width="1.6" opacity="0.85"/><text x="36.5" y="800.3" font-family="Helvetica,Arial,sans-serif" font-size="12" fill="rgba(234,234,239,1.000)" text-anchor="middle">T1</text><rect x="81.0" y="720.0" width="57.0" height="48.0" rx="3" fill="#0f0f12"/><rect x="81.0" y="720.0" width="57.0" height="48.0" rx="3" fill="rgba(51,158,229,1.000)" opacity="0.22"/><path d="M 90.0 720.0 L 81.0 720.0 L 81.0 729.0 M 129.0 720.0 L 138.0 720.0 L 138.0 729.0 M 90.0 768.0 L 81.0 768.0 L 81.0 759.0 M 129.0 768.0 L 138.0 768.0 L 138.0 759.0" fill="none" stroke="rgba(51,158,229,1.000)" stroke-width="1.6" opacity="0.85"/><text x="109.5" y="749.0" font-family="Helvetica,Arial,sans-serif" font-size="14" fill="rgba(234,234,239,1.000)" text-anchor="middle">2</text><rect x="81.0" y="772.0" width="57.0" height="48.0" rx="3" fill="#0f0f12"/><rect x="81.0" y="772.0" width="57.0" height="48.0" rx="3" fill="rgba(40,40,48,1.000)" opacity="0.22"/><path d="M 90.0 772.0 L 81.0 772.0 L 81.0 781.0 M 129.0 772.0 L 138.0 772.0 L 138.0 781.0 M 90.0 820.0 L 81.0 820.0 L 81.0 811.0 M 129.0 820.0 L 138.0 820.0 L 138.0 811.0" fill="none" stroke="rgba(40,40,48,1.000)" stroke-width="1.6" opacity="0.85"/><text x="109.5" y="800.3" font-family="Helvetica,Arial,sans-serif" font-size="12" fill="rgba(234,234,239,1.000)" text-anchor="middle">T2</text><rect x="154.0" y="720.0" width="57.0" height="48.0" rx="3" fill="#0f0f12"/><rect x="154.0" y="720.0" width="57.0" height="48.0" rx="3" fill="rgba(51,158,229,1.000)" opacity="0.22"/><path d="M 163.0 720.0 L 154.0 720.0 L 154.0 729.0 M 202.0 720.0 L 211.0 720.0 L 211.0 729.0 M 163.0 768.0 L 154.0 768.0 L 154.0 759.0 M 202.0 768.0 L 211.0 768.0 L 211.0 759.0" fill="none" stroke="rgba(51,158,229,1.000)" stroke-width="1.6" opacity="0.85"/><text x="182.5" y="749.0" font-family="Helvetica,Arial,sans-serif" font-size="14" fill="rgba(234,234,239,1.000)" text-anchor="middle">3</text><rect x="154.0" y="772.0" width="57.0" height="48.0" rx="3" fill="#0f0f12"/><rect x="154.0" y="772.0" width="57.0" height="48.0" rx="3" fill="rgba(40,40,48,1.000)" opacity="0.22"/><path d="M 163.0 772.0 L 154.0 772.0 L 154.0 781.0 M 202.0 772.0 L 211.0 772.0 L 211.0 781.0 M 163.0 820.0 L 154.0 820.0 L 154.0 811.0 M 202.0 820.0 L 211.0 820.0 L 211.0 811.0" fill="none" stroke="rgba(40,40,48,1.000)" stroke-width="1.6" opacity="0.85"/><text x="182.5" y="800.3" font-family="Helvetica,Arial,sans-serif" font-size="12" fill="rgba(234,234,239,1.000)" text-anchor="middle">T3</text><rect x="227.0" y="720.0" width="57.0" height="48.0" rx="3" fill="#0f0f12"/><rect x="227.0" y="720.0" width="57.0" height="48.0" rx="3" fill="rgba(51,158,229,1.000)" opacity="0.22"/><path d="M 236.0 720.0 L 227.0 720.0 L 227.0 729.0 M 275.0 720.0 L 284.0 720.0 L 284.0 729.0 M 236.0 768.0 L 227.0 768.0 L 227.0 759.0 M 275.0 768.0 L 284.0 768.0 L 284.0 759.0" fill="none" stroke="rgba(51,158,229,1.000)" stroke-width="1.6" opacity="0.85"/><text x="255.5" y="749.0" font-family="Helvetica,Arial,sans-serif" font-size="14" fill="rgba(234,234,239,1.000)" text-anchor="middle">4</text><rect x="227.0" y="772.0" width="57.0" height="48.0" rx="3" fill="#0f0f12"/><rect x="227.0" y="772.0" width="57.0" height="48.0" rx="3" fill="rgba(40,40,48,1.000)" opacity="0.22"/><path d="M 236.0 772.0 L 227.0 772.0 L 227.0 781.0 M 275.0 772.0 L 284.0 772.0 L 284.0 781.0 M 236.0 820.0 L 227.0 820.0 L 227.0 811.0 M 275.0 820.0 L 284.0 820.0 L 284.0 811.0" fill="none" stroke="rgba(40,40,48,1.000)" stroke-width="1.6" opacity="0.85"/><text x="255.5" y="800.3" font-family="Helvetica,Arial,sans-serif" font-size="12" fill="rgba(234,234,239,1.000)" text-anchor="middle">T4</text><rect x="300.0" y="720.0" width="57.0" height="48.0" rx="3" fill="#0f0f12"/><rect x="300.0" y="720.0" width="57.0" height="48.0" rx="3" fill="rgba(51,158,229,1.000)" opacity="0.22"/><path d="M 309.0 720.0 L 300.0 720.0 L 300.0 729.0 M 348.0 720.0 L 357.0 720.0 L 357.0 729.0 M 309.0 768.0 L 300.0 768.0 L 300.0 759.0 M 348.0 768.0 L 357.0 768.0 L 357.0 759.0" fill="none" stroke="rgba(51,158,229,1.000)" stroke-width="1.6" opacity="0.85"/><text x="328.5" y="749.0" font-family="Helvetica,Arial,sans-serif" font-size="14" fill="rgba(234,234,239,1.000)" text-anchor="middle">5</text><rect x="300.0" y="772.0" width="57.0" height="48.0" rx="3" fill="#0f0f12"/><rect x="300.0" y="772.0" width="57.0" height="48.0" rx="3" fill="rgba(40,40,48,1.000)" opacity="0.22"/><path d="M 309.0 772.0 L 300.0 772.0 L 300.0 781.0 M 348.0 772.0 L 357.0 772.0 L 357.0 781.0 M 309.0 820.0 L 300.0 820.0 L 300.0 811.0 M 348.0 820.0 L 357.0 820.0 L 357.0 811.0" fill="none" stroke="rgba(40,40,48,1.000)" stroke-width="1.6" opacity="0.85"/><text x="328.5" y="800.3" font-family="Helvetica,Arial,sans-serif" font-size="12" fill="rgba(234,234,239,1.000)" text-anchor="middle">T5</text><rect x="373.0" y="720.0" width="57.0" height="48.0" rx="3" fill="#0f0f12"/><rect x="373.0" y="720.0" width="57.0" height="48.0" rx="3" fill="rgba(51,158,229,1.000)" opacity="0.22"/><path d="M 382.0 720.0 L 373.0 720.0 L 373.0 729.0 M 421.0 720.0 L 430.0 720.0 L 430.0 729.0 M 382.0 768.0 L 373.0 768.0 L 373.0 759.0 M 421.0 768.0 L 430.0 768.0 L 430.0 759.0" fill="none" stroke="rgba(51,158,229,1.000)" stroke-width="1.6" opacity="0.85"/><text x="401.5" y="749.0" font-family="Helvetica,Arial,sans-serif" font-size="14" fill="rgba(234,234,239,1.000)" text-anchor="middle">6</text><rect x="373.0" y="772.0" width="57.0" height="48.0" rx="3" fill="#0f0f12"/><rect x="373.0" y="772.0" width="57.0" height="48.0" rx="3" fill="rgba(40,40,48,1.000)" opacity="0.22"/><path d="M 382.0 772.0 L 373.0 772.0 L 373.0 781.0 M 421.0 772.0 L 430.0 772.0 L 430.0 781.0 M 382.0 820.0 L 373.0 820.0 L 373.0 811.0 M 421.0 820.0 L 430.0 820.0 L 430.0 811.0" fill="none" stroke="rgba(40,40,48,1.000)" stroke-width="1.6" opacity="0.85"/><text x="401.5" y="800.3" font-family="Helvetica,Arial,sans-serif" font-size="12" fill="rgba(234,234,239,1.000)" text-anchor="middle">T6</text><rect x="446.0" y="720.0" width="57.0" height="48.0" rx="3" fill="#0f0f12"/><rect x="446.0" y="720.0" width="57.0" height="48.0" rx="3" fill="rgba(51,158,229,1.000)" opacity="0.22"/><path d="M 455.0 720.0 L 446.0 720.0 L 446.0 729.0 M 494.0 720.0 L 503.0 720.0 L 503.0 729.0 M 455.0 768.0 L 446.0 768.0 L 446.0 759.0 M 494.0 768.0 L 503.0 768.0 L 503.0 759.0" fill="none" stroke="rgba(51,158,229,1.000)" stroke-width="1.6" opacity="0.85"/><text x="474.5" y="749.0" font-family="Helvetica,Arial,sans-serif" font-size="14" fill="rgba(234,234,239,1.000)" text-anchor="middle">7</text><rect x="446.0" y="772.0" width="57.0" height="48.0" rx="3" fill="#0f0f12"/><rect x="446.0" y="772.0" width="57.0" height="48.0" rx="3" fill="rgba(40,40,48,1.000)" opacity="0.22"/><path d="M 455.0 772.0 L 446.0 772.0 L 446.0 781.0 M 494.0 772.0 L 503.0 772.0 L 503.0 781.0 M 455.0 820.0 L 446.0 820.0 L 446.0 811.0 M 494.0 820.0 L 503.0 820.0 L 503.0 811.0" fill="none" stroke="rgba(40,40,48,1.000)" stroke-width="1.6" opacity="0.85"/><text x="474.5" y="800.3" font-family="Helvetica,Arial,sans-serif" font-size="12" fill="rgba(234,234,239,1.000)" text-anchor="middle">T7</text><rect x="519.0" y="720.0" width="57.0" height="48.0" rx="3" fill="#0f0f12"/><rect x="519.0" y="720.0" width="57.0" height="48.0" rx="3" fill="rgba(51,158,229,1.000)" opacity="0.22"/><path d="M 528.0 720.0 L 519.0 720.0 L 519.0 729.0 M 567.0 720.0 L 576.0 720.0 L 576.0 729.0 M 528.0 768.0 L 519.0 768.0 L 519.0 759.0 M 567.0 768.0 L 576.0 768.0 L 576.0 759.0" fill="none" stroke="rgba(51,158,229,1.000)" stroke-width="1.6" opacity="0.85"/><text x="547.5" y="749.0" font-family="Helvetica,Arial,sans-serif" font-size="14" fill="rgba(234,234,239,1.000)" text-anchor="middle">8</text><rect x="519.0" y="772.0" width="57.0" height="48.0" rx="3" fill="#0f0f12"/><rect x="519.0" y="772.0" width="57.0" height="48.0" rx="3" fill="rgba(40,40,48,1.000)" opacity="0.22"/><path d="M 528.0 772.0 L 519.0 772.0 L 519.0 781.0 M 567.0 772.0 L 576.0 772.0 L 576.0 781.0 M 528.0 820.0 L 519.0 820.0 L 519.0 811.0 M 567.0 820.0 L 576.0 820.0 L 576.0 811.0" fill="none" stroke="rgba(40,40,48,1.000)" stroke-width="1.6" opacity="0.85"/><text x="547.5" y="800.3" font-family="Helvetica,Arial,sans-serif" font-size="12" fill="rgba(234,234,239,1.000)" text-anchor="middle">T8</text><text x="885.0" y="77.0" font-family="Helvetica,Arial,sans-serif" font-size="14" fill="rgba(51,158,229,1.000)" text-anchor="middle">XY / SCENE</text><rect x="598.0" y="86.0" width="283.0" height="516.0" rx="3" fill="#0f0f12" stroke="rgba(255,255,255,0.10)" stroke-width="1"/><line x1="598.0" y1="369.8" x2="881.0" y2="369.8" stroke="rgba(51,158,229,1.000)" stroke-width="1" opacity="0.5"/><line x1="716.9" y1="86.0" x2="716.9" y2="602.0" stroke="rgba(51,158,229,1.000)" stroke-width="1" opacity="0.5"/><circle cx="716.9" cy="369.8" r="7" fill="none" stroke="rgba(51,158,229,1.000)" stroke-width="2"/><text x="739.5" y="617.3" font-family="Helvetica,Arial,sans-serif" font-size="12" fill="rgba(234,234,239,1.000)" text-anchor="middle">PAD 1</text><rect x="889.0" y="86.0" width="283.0" height="516.0" rx="3" fill="#0f0f12" stroke="rgba(255,255,255,0.10)" stroke-width="1"/><line x1="889.0" y1="369.8" x2="1172.0" y2="369.8" stroke="rgba(51,158,229,1.000)" stroke-width="1" opacity="0.5"/><line x1="1007.9" y1="86.0" x2="1007.9" y2="602.0" stroke="rgba(51,158,229,1.000)" stroke-width="1" opacity="0.5"/><circle cx="1007.9" cy="369.8" r="7" fill="none" stroke="rgba(51,158,229,1.000)" stroke-width="2"/><text x="1030.5" y="617.3" font-family="Helvetica,Arial,sans-serif" font-size="12" fill="rgba(234,234,239,1.000)" text-anchor="middle">PAD 2</text><rect x="598.0" y="626.0" width="574.0" height="74.0" rx="3" fill="rgba(51,158,229,1.000)" stroke="rgba(51,158,229,1.000)" stroke-width="1.5"/><text x="885.0" y="667.7" font-family="Helvetica,Arial,sans-serif" font-size="13" fill="rgba(234,234,239,1.000)" text-anchor="middle">COLOUR</text><text x="653.0" y="724.3" font-family="Helvetica,Arial,sans-serif" font-size="12" fill="rgba(234,234,239,1.000)" text-anchor="middle">INTENSITY</text><rect x="710.0" y="708.0" width="452.0" height="48.0" rx="3" fill="#0f0f12" stroke="rgba(255,255,255,0.10)" stroke-width="1"/><rect x="712.0" y="710.0" width="151.7" height="44.0" rx="2" fill="rgba(51,158,229,1.000)" opacity="0.9"/><line x1="863.7" y1="710.0" x2="863.7" y2="754.0" stroke="#fff" stroke-width="1.5" opacity="0.75"/><text x="653.0" y="780.3" font-family="Helvetica,Arial,sans-serif" font-size="12" fill="rgba(234,234,239,1.000)" text-anchor="middle">SCENE</text><rect x="710.0" y="764.0" width="452.0" height="48.0" rx="3" fill="#0f0f12" stroke="rgba(255,255,255,0.10)" stroke-width="1"/><rect x="712.0" y="766.0" width="151.7" height="44.0" rx="2" fill="rgba(51,158,229,1.000)" opacity="0.9"/><line x1="863.7" y1="766.0" x2="863.7" y2="810.0" stroke="#fff" stroke-width="1.5" opacity="0.75"/></g>
<rect x="5.0" y="83.0" width="574.0" height="616.0" fill="none" stroke="#ffd23f" stroke-width="2.5" rx="4" opacity="0.95"/><circle cx="21.0" cy="99.0" r="15" fill="#ffd23f"/><text x="21.0" y="105.0" text-anchor="middle" font-family="Helvetica,Arial,sans-serif" font-size="16" font-weight="bold" fill="#141416">1</text><rect x="5.0" y="717.0" width="574.0" height="54.0" fill="none" stroke="#ffd23f" stroke-width="2.5" rx="4" opacity="0.95"/><circle cx="21.0" cy="733.0" r="15" fill="#ffd23f"/><text x="21.0" y="739.0" text-anchor="middle" font-family="Helvetica,Arial,sans-serif" font-size="16" font-weight="bold" fill="#141416">2</text><rect x="5.0" y="769.0" width="574.0" height="54.0" fill="none" stroke="#ffd23f" stroke-width="2.5" rx="4" opacity="0.95"/><circle cx="21.0" cy="785.0" r="15" fill="#ffd23f"/><text x="21.0" y="791.0" text-anchor="middle" font-family="Helvetica,Arial,sans-serif" font-size="16" font-weight="bold" fill="#141416">3</text><rect x="595.0" y="83.0" width="580.0" height="522.0" fill="none" stroke="#ffd23f" stroke-width="2.5" rx="4" opacity="0.95"/><circle cx="611.0" cy="99.0" r="15" fill="#ffd23f"/><text x="611.0" y="105.0" text-anchor="middle" font-family="Helvetica,Arial,sans-serif" font-size="16" font-weight="bold" fill="#141416">4</text><rect x="595.0" y="623.0" width="580.0" height="80.0" fill="none" stroke="#ffd23f" stroke-width="2.5" rx="4" opacity="0.95"/><circle cx="611.0" cy="639.0" r="15" fill="#ffd23f"/><text x="611.0" y="645.0" text-anchor="middle" font-family="Helvetica,Arial,sans-serif" font-size="16" font-weight="bold" fill="#141416">5</text><rect x="707.0" y="705.0" width="458.0" height="110.0" fill="none" stroke="#ffd23f" stroke-width="2.5" rx="4" opacity="0.95"/><circle cx="723.0" cy="721.0" r="15" fill="#ffd23f"/><text x="723.0" y="727.0" text-anchor="middle" font-family="Helvetica,Arial,sans-serif" font-size="16" font-weight="bold" fill="#141416">6</text>
<text x="1204.0" y="46.0" font-family="Helvetica,Arial,sans-serif" font-size="26" font-weight="bold" fill="#e8e8ea">TOUCHDESIGNER</text>
<text x="1204.0" y="70.0" font-family="Helvetica,Arial,sans-serif" font-size="14" fill="#a9a9b2">Generic parameter bank</text>
<circle cx="1218.0" cy="93.0" r="14" fill="#ffd23f"/><text x="1218.0" y="99.0" text-anchor="middle" font-family="Helvetica,Arial,sans-serif" font-size="15" font-weight="bold" fill="#141416">1</text><text x="1242.0" y="98.0" font-family="Helvetica,Arial,sans-serif" font-size="16" font-weight="bold" fill="#e8e8ea">Faders</text><text x="1242.0" y="120.0" font-family="Helvetica,Arial,sans-serif" font-size="13.5" fill="#a9a9b2">Eight faders on /td/fader/1..8. An OSC</text><text x="1242.0" y="138.0" font-family="Helvetica,Arial,sans-serif" font-size="13.5" fill="#a9a9b2">In CHOP turns these straight into</text><text x="1242.0" y="156.0" font-family="Helvetica,Arial,sans-serif" font-size="13.5" fill="#a9a9b2">channels.</text><circle cx="1218.0" cy="183.0" r="14" fill="#ffd23f"/><text x="1218.0" y="189.0" text-anchor="middle" font-family="Helvetica,Arial,sans-serif" font-size="15" font-weight="bold" fill="#141416">2</text><text x="1242.0" y="188.0" font-family="Helvetica,Arial,sans-serif" font-size="16" font-weight="bold" fill="#e8e8ea">Toggles</text><text x="1242.0" y="210.0" font-family="Helvetica,Arial,sans-serif" font-size="13.5" fill="#a9a9b2">Latching, on /td/toggle/1..8.</text><circle cx="1218.0" cy="237.0" r="14" fill="#ffd23f"/><text x="1218.0" y="243.0" text-anchor="middle" font-family="Helvetica,Arial,sans-serif" font-size="15" font-weight="bold" fill="#141416">3</text><text x="1242.0" y="242.0" font-family="Helvetica,Arial,sans-serif" font-size="16" font-weight="bold" fill="#e8e8ea">Triggers</text><text x="1242.0" y="264.0" font-family="Helvetica,Arial,sans-serif" font-size="13.5" fill="#a9a9b2">Momentary, on /td/trigger/1..8 —</text><text x="1242.0" y="282.0" font-family="Helvetica,Arial,sans-serif" font-size="13.5" fill="#a9a9b2">one-shots, reloads, bangs.</text><circle cx="1218.0" cy="309.0" r="14" fill="#ffd23f"/><text x="1218.0" y="315.0" text-anchor="middle" font-family="Helvetica,Arial,sans-serif" font-size="15" font-weight="bold" fill="#141416">4</text><text x="1242.0" y="314.0" font-family="Helvetica,Arial,sans-serif" font-size="16" font-weight="bold" fill="#e8e8ea">XY pads</text><text x="1242.0" y="336.0" font-family="Helvetica,Arial,sans-serif" font-size="13.5" fill="#a9a9b2">Two axes each: /td/pad/n/x and</text><text x="1242.0" y="354.0" font-family="Helvetica,Arial,sans-serif" font-size="13.5" fill="#a9a9b2">/td/pad/n/y.</text><circle cx="1218.0" cy="381.0" r="14" fill="#ffd23f"/><text x="1218.0" y="387.0" text-anchor="middle" font-family="Helvetica,Arial,sans-serif" font-size="15" font-weight="bold" fill="#141416">5</text><text x="1242.0" y="386.0" font-family="Helvetica,Arial,sans-serif" font-size="16" font-weight="bold" fill="#e8e8ea">Colour</text><text x="1242.0" y="408.0" font-family="Helvetica,Arial,sans-serif" font-size="13.5" fill="#a9a9b2">Opens the same picker as the Resolume</text><text x="1242.0" y="426.0" font-family="Helvetica,Arial,sans-serif" font-size="13.5" fill="#a9a9b2">page, sending to /td/color/r|g|b.</text><circle cx="1218.0" cy="453.0" r="14" fill="#ffd23f"/><text x="1218.0" y="459.0" text-anchor="middle" font-family="Helvetica,Arial,sans-serif" font-size="15" font-weight="bold" fill="#141416">6</text><text x="1242.0" y="458.0" font-family="Helvetica,Arial,sans-serif" font-size="16" font-weight="bold" fill="#e8e8ea">Intensity / scene</text><text x="1242.0" y="480.0" font-family="Helvetica,Arial,sans-serif" font-size="13.5" fill="#a9a9b2">Two spare buses for whatever a patch</text><text x="1242.0" y="498.0" font-family="Helvetica,Arial,sans-serif" font-size="13.5" fill="#a9a9b2">needs most.</text>
</svg>